<mxfile host="Electron" agent="Mozilla/5.0 (Windows NT 10.0; Win64; x64) AppleWebKit/537.36 (KHTML, like Gecko) draw.io/26.0.16 Chrome/132.0.6834.196 Electron/34.2.0 Safari/537.36" version="26.0.16">
  <diagram name="Страница — 1" id="xevahkoyZNOQa2figLuM">
    <mxGraphModel dx="915" dy="690" grid="1" gridSize="10" guides="1" tooltips="1" connect="1" arrows="1" fold="1" page="1" pageScale="1" pageWidth="827" pageHeight="1169" math="0" shadow="0">
      <root>
        <mxCell id="0" />
        <mxCell id="1" parent="0" />
        <mxCell id="p7FjC_NFbRCoyeUe7-vV-76" style="edgeStyle=orthogonalEdgeStyle;rounded=0;orthogonalLoop=1;jettySize=auto;html=1;entryX=0.5;entryY=0;entryDx=0;entryDy=0;" edge="1" parent="1" source="p7FjC_NFbRCoyeUe7-vV-74" target="p7FjC_NFbRCoyeUe7-vV-75">
          <mxGeometry relative="1" as="geometry" />
        </mxCell>
        <mxCell id="p7FjC_NFbRCoyeUe7-vV-74" value="" style="ellipse;fillColor=strokeColor;html=1;" vertex="1" parent="1">
          <mxGeometry x="405" y="45" width="30" height="30" as="geometry" />
        </mxCell>
        <mxCell id="p7FjC_NFbRCoyeUe7-vV-75" value="Неактивное" style="rounded=1;whiteSpace=wrap;html=1;" vertex="1" parent="1">
          <mxGeometry x="360" y="120" width="120" height="60" as="geometry" />
        </mxCell>
        <mxCell id="p7FjC_NFbRCoyeUe7-vV-81" style="edgeStyle=orthogonalEdgeStyle;rounded=0;orthogonalLoop=1;jettySize=auto;html=1;entryX=0;entryY=0.5;entryDx=0;entryDy=0;" edge="1" parent="1" source="p7FjC_NFbRCoyeUe7-vV-77">
          <mxGeometry relative="1" as="geometry">
            <mxPoint x="570" y="300.0000000000001" as="targetPoint" />
          </mxGeometry>
        </mxCell>
        <mxCell id="p7FjC_NFbRCoyeUe7-vV-88" style="edgeStyle=orthogonalEdgeStyle;rounded=0;orthogonalLoop=1;jettySize=auto;html=1;exitX=1;exitY=0.75;exitDx=0;exitDy=0;entryX=0;entryY=0.75;entryDx=0;entryDy=0;" edge="1" parent="1" source="p7FjC_NFbRCoyeUe7-vV-77">
          <mxGeometry relative="1" as="geometry">
            <mxPoint x="570" y="315.0000000000001" as="targetPoint" />
          </mxGeometry>
        </mxCell>
        <mxCell id="p7FjC_NFbRCoyeUe7-vV-114" style="edgeStyle=orthogonalEdgeStyle;rounded=0;orthogonalLoop=1;jettySize=auto;html=1;" edge="1" parent="1" source="p7FjC_NFbRCoyeUe7-vV-77">
          <mxGeometry relative="1" as="geometry">
            <mxPoint x="570" y="490" as="targetPoint" />
            <Array as="points">
              <mxPoint x="250" y="490" />
            </Array>
          </mxGeometry>
        </mxCell>
        <mxCell id="p7FjC_NFbRCoyeUe7-vV-77" value="Активное" style="rounded=1;whiteSpace=wrap;html=1;" vertex="1" parent="1">
          <mxGeometry x="190" y="270" width="120" height="60" as="geometry" />
        </mxCell>
        <mxCell id="p7FjC_NFbRCoyeUe7-vV-83" style="edgeStyle=orthogonalEdgeStyle;rounded=0;orthogonalLoop=1;jettySize=auto;html=1;entryX=1;entryY=0.5;entryDx=0;entryDy=0;exitX=0.078;exitY=0.015;exitDx=0;exitDy=0;exitPerimeter=0;" edge="1" parent="1" source="p7FjC_NFbRCoyeUe7-vV-95" target="p7FjC_NFbRCoyeUe7-vV-75">
          <mxGeometry relative="1" as="geometry">
            <mxPoint x="580.0344827586207" y="270.0000000000001" as="sourcePoint" />
            <Array as="points">
              <mxPoint x="581" y="150" />
            </Array>
          </mxGeometry>
        </mxCell>
        <mxCell id="p7FjC_NFbRCoyeUe7-vV-90" style="edgeStyle=orthogonalEdgeStyle;rounded=0;orthogonalLoop=1;jettySize=auto;html=1;entryX=1;entryY=0.25;entryDx=0;entryDy=0;" edge="1" parent="1" target="p7FjC_NFbRCoyeUe7-vV-75">
          <mxGeometry relative="1" as="geometry">
            <mxPoint x="630" y="140" as="targetPoint" />
            <mxPoint x="630.0344827586207" y="270.0000000000001" as="sourcePoint" />
            <Array as="points">
              <mxPoint x="630" y="135" />
            </Array>
          </mxGeometry>
        </mxCell>
        <mxCell id="p7FjC_NFbRCoyeUe7-vV-79" style="edgeStyle=orthogonalEdgeStyle;rounded=0;orthogonalLoop=1;jettySize=auto;html=1;entryX=0.827;entryY=-0.04;entryDx=0;entryDy=0;entryPerimeter=0;" edge="1" parent="1" source="p7FjC_NFbRCoyeUe7-vV-75" target="p7FjC_NFbRCoyeUe7-vV-77">
          <mxGeometry relative="1" as="geometry" />
        </mxCell>
        <mxCell id="p7FjC_NFbRCoyeUe7-vV-80" value="Ввод логина и пароля" style="text;html=1;align=center;verticalAlign=middle;whiteSpace=wrap;rounded=0;" vertex="1" parent="1">
          <mxGeometry x="290" y="160" width="60" height="30" as="geometry" />
        </mxCell>
        <mxCell id="p7FjC_NFbRCoyeUe7-vV-82" value="Запрос на авторизацию пользователя" style="text;html=1;align=center;verticalAlign=middle;whiteSpace=wrap;rounded=0;" vertex="1" parent="1">
          <mxGeometry x="405" y="260" width="60" height="30" as="geometry" />
        </mxCell>
        <mxCell id="p7FjC_NFbRCoyeUe7-vV-84" value="Вход в систему" style="text;html=1;align=center;verticalAlign=middle;whiteSpace=wrap;rounded=0;" vertex="1" parent="1">
          <mxGeometry x="596" y="210" width="20" height="30" as="geometry" />
        </mxCell>
        <mxCell id="p7FjC_NFbRCoyeUe7-vV-85" value="[Данные пользователя существуют]" style="text;html=1;align=center;verticalAlign=middle;whiteSpace=wrap;rounded=0;" vertex="1" parent="1">
          <mxGeometry x="500" y="160" width="60" height="30" as="geometry" />
        </mxCell>
        <mxCell id="p7FjC_NFbRCoyeUe7-vV-86" style="edgeStyle=orthogonalEdgeStyle;rounded=0;orthogonalLoop=1;jettySize=auto;html=1;exitX=0;exitY=0.25;exitDx=0;exitDy=0;entryX=0.083;entryY=0;entryDx=0;entryDy=0;entryPerimeter=0;" edge="1" parent="1" source="p7FjC_NFbRCoyeUe7-vV-75" target="p7FjC_NFbRCoyeUe7-vV-77">
          <mxGeometry relative="1" as="geometry" />
        </mxCell>
        <mxCell id="p7FjC_NFbRCoyeUe7-vV-87" value="Нажатие кнопки &quot;Создать комнату/Войти в комнату&quot;" style="text;html=1;align=center;verticalAlign=middle;whiteSpace=wrap;rounded=0;" vertex="1" parent="1">
          <mxGeometry x="200" y="90" width="140" height="30" as="geometry" />
        </mxCell>
        <mxCell id="p7FjC_NFbRCoyeUe7-vV-89" value="Запрос на данные комнаты" style="text;html=1;align=center;verticalAlign=middle;whiteSpace=wrap;rounded=0;" vertex="1" parent="1">
          <mxGeometry x="405" y="330" width="60" height="30" as="geometry" />
        </mxCell>
        <mxCell id="p7FjC_NFbRCoyeUe7-vV-91" value="Вход в комнату" style="text;html=1;align=center;verticalAlign=middle;whiteSpace=wrap;rounded=0;" vertex="1" parent="1">
          <mxGeometry x="630" y="170" width="60" height="30" as="geometry" />
        </mxCell>
        <mxCell id="p7FjC_NFbRCoyeUe7-vV-95" value="Ожидание&lt;br&gt;&lt;div&gt;&lt;br/&gt;&lt;/div&gt;" style="swimlane;fontStyle=4;align=center;verticalAlign=top;childLayout=stackLayout;horizontal=1;startSize=40;horizontalStack=0;resizeParent=1;resizeParentMax=0;resizeLast=0;collapsible=0;marginBottom=0;html=1;rounded=1;absoluteArcSize=1;arcSize=50;whiteSpace=wrap;" vertex="1" parent="1">
          <mxGeometry x="570" y="270" width="140" height="320" as="geometry" />
        </mxCell>
        <mxCell id="p7FjC_NFbRCoyeUe7-vV-104" style="edgeStyle=orthogonalEdgeStyle;rounded=0;orthogonalLoop=1;jettySize=auto;html=1;entryX=0.5;entryY=0;entryDx=0;entryDy=0;" edge="1" parent="1" source="p7FjC_NFbRCoyeUe7-vV-102" target="p7FjC_NFbRCoyeUe7-vV-103">
          <mxGeometry relative="1" as="geometry" />
        </mxCell>
        <mxCell id="p7FjC_NFbRCoyeUe7-vV-102" value="" style="ellipse;fillColor=strokeColor;html=1;" vertex="1" parent="1">
          <mxGeometry x="625" y="314" width="30" height="30" as="geometry" />
        </mxCell>
        <mxCell id="p7FjC_NFbRCoyeUe7-vV-107" style="edgeStyle=orthogonalEdgeStyle;rounded=0;orthogonalLoop=1;jettySize=auto;html=1;entryX=0.5;entryY=0;entryDx=0;entryDy=0;" edge="1" parent="1" source="p7FjC_NFbRCoyeUe7-vV-103" target="p7FjC_NFbRCoyeUe7-vV-106">
          <mxGeometry relative="1" as="geometry">
            <mxPoint x="640" y="440" as="targetPoint" />
          </mxGeometry>
        </mxCell>
        <mxCell id="p7FjC_NFbRCoyeUe7-vV-103" value="Запуск" style="rounded=1;whiteSpace=wrap;html=1;" vertex="1" parent="1">
          <mxGeometry x="600" y="360" width="80" height="40" as="geometry" />
        </mxCell>
        <mxCell id="p7FjC_NFbRCoyeUe7-vV-111" style="edgeStyle=orthogonalEdgeStyle;rounded=0;orthogonalLoop=1;jettySize=auto;html=1;entryX=0.5;entryY=0;entryDx=0;entryDy=0;" edge="1" parent="1" source="p7FjC_NFbRCoyeUe7-vV-106" target="p7FjC_NFbRCoyeUe7-vV-110">
          <mxGeometry relative="1" as="geometry" />
        </mxCell>
        <mxCell id="p7FjC_NFbRCoyeUe7-vV-106" value="Готово" style="rounded=1;whiteSpace=wrap;html=1;" vertex="1" parent="1">
          <mxGeometry x="600" y="449" width="80" height="40" as="geometry" />
        </mxCell>
        <mxCell id="p7FjC_NFbRCoyeUe7-vV-109" value="Ответ от сервера" style="text;html=1;align=center;verticalAlign=middle;whiteSpace=wrap;rounded=0;" vertex="1" parent="1">
          <mxGeometry x="644" y="407" width="60" height="30" as="geometry" />
        </mxCell>
        <mxCell id="p7FjC_NFbRCoyeUe7-vV-110" value="" style="ellipse;html=1;shape=endState;fillColor=strokeColor;" vertex="1" parent="1">
          <mxGeometry x="625" y="544" width="30" height="30" as="geometry" />
        </mxCell>
        <mxCell id="p7FjC_NFbRCoyeUe7-vV-112" style="edgeStyle=orthogonalEdgeStyle;rounded=0;orthogonalLoop=1;jettySize=auto;html=1;exitX=0.25;exitY=0;exitDx=0;exitDy=0;entryX=0.005;entryY=0.845;entryDx=0;entryDy=0;entryPerimeter=0;" edge="1" parent="1" source="p7FjC_NFbRCoyeUe7-vV-75" target="p7FjC_NFbRCoyeUe7-vV-77">
          <mxGeometry relative="1" as="geometry">
            <Array as="points">
              <mxPoint x="390" y="70" />
              <mxPoint x="170" y="70" />
              <mxPoint x="170" y="321" />
            </Array>
          </mxGeometry>
        </mxCell>
        <mxCell id="p7FjC_NFbRCoyeUe7-vV-113" value="Нажатие кнопки &quot;Избраные песни&quot;" style="text;html=1;align=center;verticalAlign=middle;whiteSpace=wrap;rounded=0;" vertex="1" parent="1">
          <mxGeometry x="100" y="180" width="60" height="30" as="geometry" />
        </mxCell>
        <mxCell id="p7FjC_NFbRCoyeUe7-vV-115" value="Запрос на музыку пользователя" style="text;html=1;align=center;verticalAlign=middle;whiteSpace=wrap;rounded=0;" vertex="1" parent="1">
          <mxGeometry x="330" y="449" width="60" height="30" as="geometry" />
        </mxCell>
        <mxCell id="p7FjC_NFbRCoyeUe7-vV-116" style="edgeStyle=orthogonalEdgeStyle;rounded=0;orthogonalLoop=1;jettySize=auto;html=1;entryX=0.795;entryY=0.001;entryDx=0;entryDy=0;entryPerimeter=0;" edge="1" parent="1" source="p7FjC_NFbRCoyeUe7-vV-95" target="p7FjC_NFbRCoyeUe7-vV-75">
          <mxGeometry relative="1" as="geometry">
            <Array as="points">
              <mxPoint x="740" y="430" />
              <mxPoint x="740" y="100" />
              <mxPoint x="455" y="100" />
            </Array>
          </mxGeometry>
        </mxCell>
        <mxCell id="p7FjC_NFbRCoyeUe7-vV-117" value="Отображение музыки" style="text;html=1;align=center;verticalAlign=middle;whiteSpace=wrap;rounded=0;" vertex="1" parent="1">
          <mxGeometry x="644" y="60" width="60" height="30" as="geometry" />
        </mxCell>
      </root>
    </mxGraphModel>
  </diagram>
</mxfile>
